<svg xmlns="http://www.w3.org/2000/svg" version="1.1" xmlns:xlink="http://www.w3.org/1999/xlink" xmlns:svgjs="http://svgjs.dev/svgjs" width="1440" height="560" preserveAspectRatio="none" viewBox="0 0 1440 560"><g mask="url(&quot;#SvgjsMask1000&quot;)" fill="none"><rect width="1440" height="560" x="0" y="0" fill="#0e2a47"></rect><path d="M111.8 208.96a5.6 5.6 0 1 0 2.41-10.94 5.6 5.6 0 1 0-2.41 10.94zM115.25 193.33a5.6 5.6 0 1 0 2.41-10.93 5.6 5.6 0 1 0-2.41 10.93zM118.69 177.71a5.6 5.6 0 1 0 2.42-10.94 5.6 5.6 0 1 0-2.42 10.94zM122.14 162.09a5.6 5.6 0 1 0 2.42-10.94 5.6 5.6 0 1 0-2.42 10.94z" fill="#e73635"></path><rect width="60" height="60" clip-path="url(&quot;#SvgjsClipPath1001&quot;)" x="676.32" y="282.01" fill="url(&quot;#SvgjsPattern1002&quot;)" transform="rotate(114.2, 706.32, 312.01)"></rect><circle r="46.666666666666664" cx="24.69" cy="161.79" stroke="#037b0b" stroke-width="2.34" stroke-dasharray="2, 2"></circle><path d="M343.66999999999996 374.07 L206.12 249.56L146.78766271271593 439.92233728728405z" fill="#d3b714"></path><rect width="128.4" height="128.4" clip-path="url(&quot;#SvgjsClipPath1003&quot;)" x="430.73" y="449.77" fill="url(&quot;#SvgjsPattern1004&quot;)" transform="rotate(14.7, 494.93, 513.97)"></rect><rect width="121.6" height="121.6" clip-path="url(&quot;#SvgjsClipPath1005&quot;)" x="959.1" y="311.07" fill="url(&quot;#SvgjsPattern1006&quot;)" transform="rotate(273.92, 1019.9, 371.87)"></rect><rect width="372" height="372" clip-path="url(&quot;#SvgjsClipPath1007&quot;)" x="1245.65" y="47.72" fill="url(&quot;#SvgjsPattern1008&quot;)" transform="rotate(101.42, 1431.65, 233.72)"></rect><rect width="215.2" height="215.2" clip-path="url(&quot;#SvgjsClipPath1009&quot;)" x="707.47" y="83.38" fill="url(&quot;#SvgjsPattern1010&quot;)" transform="rotate(233.64, 815.07, 190.98)"></rect><path d="M508.03 239.11L512.42 227.08 525.12 228.72 529.5 216.69 542.2 218.33 546.59 206.3 559.29 207.93" stroke="#d3b714" stroke-width="1.55" stroke-dasharray="2, 2"></path><path d="M1289.62 111.06L1277.54 106.8 1279.04 94.09 1266.97 89.83 1268.47 77.11 1256.4 72.85 1257.9 60.13M1296.41 106.84L1284.33 102.58 1285.84 89.86 1273.76 85.6 1275.26 72.88 1263.19 68.62 1264.69 55.9M1303.2 102.61L1291.12 98.35 1292.63 85.63 1280.55 81.37 1282.05 68.65 1269.98 64.39 1271.48 51.67" stroke="#037b0b" stroke-width="1" stroke-dasharray="2, 2"></path><path d="M47.98 382.16a5.6 5.6 0 1 0 10.44-4.04 5.6 5.6 0 1 0-10.44 4.04zM62.9 376.38a5.6 5.6 0 1 0 10.44-4.04 5.6 5.6 0 1 0-10.44 4.04zM77.82 370.61a5.6 5.6 0 1 0 10.44-4.05 5.6 5.6 0 1 0-10.44 4.05zM92.74 364.83a5.6 5.6 0 1 0 10.45-4.04 5.6 5.6 0 1 0-10.45 4.04z" stroke="#037b0b" stroke-width="2.8"></path><circle r="46.666666666666664" cx="915.07" cy="151.35" stroke="#037b0b" stroke-width="1.51" stroke-dasharray="3, 2"></circle></g><defs><mask id="SvgjsMask1000"><rect width="1440" height="560" fill="#ffffff"></rect></mask><pattern x="0" y="0" width="6" height="6" patternUnits="userSpaceOnUse" id="SvgjsPattern1002"><path d="M3 1L3 5M1 3L5 3" stroke="#d3b714" fill="none" stroke-width="1"></path></pattern><clipPath id="SvgjsClipPath1001"><circle r="15" cx="706.32" cy="312.01"></circle></clipPath><pattern x="0" y="0" width="12.84" height="12.84" patternUnits="userSpaceOnUse" id="SvgjsPattern1004"><path d="M6.42 1L6.42 11.84M1 6.42L11.84 6.42" stroke="#e73635" fill="none" stroke-width="1.99"></path></pattern><clipPath id="SvgjsClipPath1003"><circle r="32.1" cx="494.93" cy="513.97"></circle></clipPath><pattern x="0" y="0" width="7.6" height="7.6" patternUnits="userSpaceOnUse" id="SvgjsPattern1006"><path d="M3.8 1L3.8 6.6M1 3.8L6.6 3.8" stroke="#d3b714" fill="none" stroke-width="1"></path></pattern><clipPath id="SvgjsClipPath1005"><circle r="30.4" cx="1019.9" cy="371.87"></circle></clipPath><pattern x="0" y="0" width="372" height="12.4" patternUnits="userSpaceOnUse" id="SvgjsPattern1008"><rect width="372" height="6.2" x="0" y="0" fill="#d3b714"></rect><rect width="372" height="6.2" x="0" y="6.2" fill="rgba(0, 0, 0, 0)"></rect></pattern><clipPath id="SvgjsClipPath1007"><circle r="93" cx="1431.65" cy="233.72"></circle></clipPath><pattern x="0" y="0" width="10.76" height="10.76" patternUnits="userSpaceOnUse" id="SvgjsPattern1010"><path d="M5.38 1L5.38 9.76M1 5.38L9.76 5.38" stroke="#e73635" fill="none" stroke-width="3.6"></path></pattern><clipPath id="SvgjsClipPath1009"><circle r="53.8" cx="815.07" cy="190.98"></circle></clipPath></defs></svg>