<?xml version="1.0" encoding="iso-8859-1"?>
<!-- Uploaded to: SVG Repo, www.svgrepo.com, Generator: SVG Repo Mixer Tools -->
<!DOCTYPE svg PUBLIC "-//W3C//DTD SVG 1.1//EN" "http://www.w3.org/Graphics/SVG/1.1/DTD/svg11.dtd">
<svg fill="#000000" version="1.1" id="Capa_1" xmlns="http://www.w3.org/2000/svg" xmlns:xlink="http://www.w3.org/1999/xlink" 
	 width="800px" height="800px" viewBox="0 0 278.455 278.455"
	 xml:space="preserve">
<g>
	<g>
		<polygon points="232.902,164.576 196.711,186.717 164.375,166.948 172.98,161.58 232.902,124.915 		"/>
		<polygon points="114.067,166.948 81.737,186.717 45.546,164.576 45.546,124.915 105.465,161.58 		"/>
		<polygon points="139.224,52.605 185.668,80.477 219.601,101.241 158.779,139.248 139.224,151.216 119.664,139.248 58.838,101.241 
			92.774,80.477 		"/>
		<polygon points="198.26,16.552 278.455,66.681 246.569,86.178 199.071,57.664 164.742,36.671 		"/>
		<polygon points="80.194,16.552 113.707,36.671 79.383,57.664 31.865,86.178 0,66.681 		"/>
		<polygon points="0.357,136.942 19.092,125.71 19.092,148.405 		"/>
		<path d="M45.546,195.585L74.85,213.51c2.116,1.297,4.5,1.945,6.894,1.945c2.398,0,4.789-0.648,6.905-1.945l37.356-22.842v71.234
			l-80.458-52.067V195.585z"/>
		<path d="M232.902,209.835l-80.458,52.067v-71.234l37.35,22.842c2.12,1.297,4.51,1.945,6.912,1.945c2.39,0,4.779-0.648,6.893-1.945
			l29.304-17.925V209.835z"/>
		<polygon points="259.359,148.405 259.359,125.71 278.094,136.942 		"/>
	</g>
</g>
</svg>